<svg data-v-fde0c5aa="" xmlns="http://www.w3.org/2000/svg" viewBox="0 0 300 300" class="iconAbove"><!----><defs data-v-fde0c5aa=""><!----></defs><rect data-v-fde0c5aa="" fill="#00242C" x="0" y="0" width="300px" height="300px" class="logo-background-square"></rect><defs data-v-fde0c5aa=""><!----></defs><g data-v-fde0c5aa="" id="fb9aa34f-9b46-4a08-99b1-9dc83a2f6811" fill="#FFFFFF" transform="matrix(1.8829663713223175,0,0,1.8829663713223175,19.0773464600947,163.50970487233639)"><path d="M8.69 5.68C8.69 5.84 8.54 5.96 8.36 5.96L5.68 5.96L5.68 15.47C5.68 15.65 5.56 15.81 5.42 15.81L3.77 15.81C3.63 15.81 3.50 15.65 3.50 15.47L3.50 5.96L0.77 5.96C0.62 5.96 0.49 5.84 0.49 5.68L0.49 4.05C0.49 3.89 0.62 3.78 0.77 3.78L8.36 3.78C8.54 3.78 8.69 3.89 8.69 4.05ZM18.37 15.53C18.37 15.68 18.24 15.81 18.10 15.81L16.45 15.81C16.31 15.81 16.18 15.68 16.18 15.53L16.18 10.88L12.35 10.88L12.35 15.53C12.35 15.68 12.24 15.81 12.08 15.81L10.44 15.81C10.29 15.81 10.16 15.68 10.16 15.53L10.16 4.10C10.16 3.92 10.29 3.77 10.44 3.77L12.08 3.77C12.24 3.77 12.35 3.92 12.35 4.10L12.35 8.69L16.18 8.69L16.18 4.10C16.18 3.92 16.31 3.77 16.45 3.77L18.10 3.77C18.24 3.77 18.37 3.92 18.37 4.10ZM28.11 15.54C28.11 15.69 27.99 15.82 27.85 15.82L20.19 15.82C20.03 15.82 19.91 15.69 19.91 15.54L19.91 4.06C19.91 3.91 20.03 3.78 20.19 3.78L27.57 3.78C27.72 3.78 27.85 3.91 27.85 4.06L27.85 5.70C27.85 5.85 27.72 5.96 27.57 5.96L22.09 5.96L22.09 8.71L27.29 8.71C27.44 8.71 27.57 8.82 27.57 8.97L27.57 10.61C27.57 10.77 27.44 10.89 27.29 10.89L22.09 10.89L22.09 13.62L27.85 13.62C27.99 13.62 28.11 13.75 28.11 13.90ZM43.62 4.79C42.80 4.13 41.66 3.78 40.33 3.78L36.51 3.78C36.36 3.78 36.23 3.91 36.23 4.06L36.23 5.18L38.39 8.69L36.23 8.69L36.23 15.53C36.23 15.68 36.36 15.81 36.51 15.81L38.15 15.81C38.30 15.81 38.42 15.68 38.42 15.53L38.42 10.89L40.36 10.89C41.68 10.88 42.81 10.54 43.62 9.88C44.45 9.23 44.91 8.30 44.91 7.34C44.91 6.36 44.45 5.43 43.62 4.79ZM39.28 5.96L40.33 5.96C41.90 5.96 42.73 6.65 42.73 7.34C42.73 7.92 42.11 8.51 40.92 8.67ZM52.84 11.16C52.84 11.00 52.71 10.89 52.56 10.89L51.63 10.89L49.92 4.05L49.91 3.98C49.87 3.88 49.77 3.81 49.66 3.81L47.82 3.81C47.71 3.81 47.61 3.88 47.57 3.98L47.56 4.06L44.72 15.41C44.72 15.43 44.72 15.44 44.70 15.44L44.70 15.50C44.70 15.67 44.83 15.79 44.97 15.79L46.66 15.79C46.77 15.79 46.89 15.71 46.91 15.60C46.91 15.58 46.93 15.57 46.93 15.57L47.54 13.06L49.94 13.06L50.55 15.55L50.57 15.60C50.61 15.71 50.71 15.79 50.82 15.79L52.51 15.79C52.67 15.79 52.78 15.67 52.78 15.50L52.78 15.47L52.77 15.40L52.18 13.06L52.56 13.06C52.71 13.06 52.84 12.95 52.84 12.80ZM48.09 10.89L48.75 8.30L49.39 10.89ZM61.25 5.68C61.25 5.84 61.10 5.96 60.91 5.96L58.24 5.96L58.24 15.47C58.24 15.65 58.11 15.81 57.97 15.81L56.32 15.81C56.18 15.81 56.06 15.65 56.06 15.47L56.06 5.96L53.33 5.96C53.17 5.96 53.05 5.84 53.05 5.68L53.05 4.05C53.05 3.89 53.17 3.78 53.33 3.78L60.91 3.78C61.10 3.78 61.25 3.89 61.25 4.05ZM70.92 15.53C70.92 15.68 70.80 15.81 70.66 15.81L69.01 15.81C68.87 15.81 68.74 15.68 68.74 15.53L68.74 10.88L64.90 10.88L64.90 15.53C64.90 15.68 64.79 15.81 64.64 15.81L63.00 15.81C62.85 15.81 62.72 15.68 62.72 15.53L62.72 4.10C62.72 3.92 62.85 3.77 63.00 3.77L64.64 3.77C64.79 3.77 64.90 3.92 64.90 4.10L64.90 8.69L68.74 8.69L68.74 4.10C68.74 3.92 68.87 3.77 69.01 3.77L70.66 3.77C70.80 3.77 70.92 3.92 70.92 4.10ZM80.95 5.67C80.95 5.82 80.82 5.95 80.68 5.95L76.17 5.95L78.46 8.69L79.24 8.69C79.44 8.69 79.58 8.81 79.58 8.96L79.58 10.60C79.58 10.75 79.44 10.88 79.24 10.88L74.93 10.88L74.93 15.51C74.93 15.67 74.82 15.81 74.66 15.81L73.02 15.81C72.87 15.81 72.74 15.67 72.74 15.51L72.74 8.69L75.60 8.69L72.74 5.25L72.74 4.06C72.74 3.89 72.87 3.77 73.02 3.77L80.68 3.77C80.82 3.77 80.95 3.89 80.95 4.06ZM86.73 5.95L86.73 13.61L88.56 13.61C88.76 13.61 88.91 13.73 88.91 13.89L88.91 15.53C88.91 15.68 88.76 15.81 88.56 15.81L82.63 15.81C82.47 15.81 82.35 15.68 82.35 15.53L82.35 13.89C82.35 13.73 82.47 13.61 82.63 13.61L84.53 13.61L84.53 5.95L82.63 5.95C82.47 5.95 82.35 5.84 82.35 5.68L82.35 4.05C82.35 3.89 82.47 3.77 82.63 3.77L88.56 3.77C88.76 3.77 88.91 3.89 88.91 4.05L88.91 5.68C88.91 5.84 88.76 5.95 88.56 5.95ZM98.80 15.89L92.78 9.32L92.78 15.53C92.78 15.68 92.67 15.81 92.51 15.81L90.87 15.81C90.72 15.81 90.59 15.68 90.59 15.53L90.59 3.70L96.61 10.26L96.61 4.06C96.61 3.91 96.74 3.78 96.88 3.78L98.53 3.78C98.67 3.78 98.80 3.91 98.80 4.06ZM103.75 15.81C105.11 15.82 106.47 15.37 107.59 14.45C110.14 12.35 110.52 8.55 108.40 5.99C107.23 4.55 105.49 3.79 103.75 3.79L100.76 3.79C100.60 3.79 100.48 3.92 100.48 4.06L100.48 15.47C100.48 15.67 100.60 15.81 100.76 15.81ZM106.72 7.38C108.07 9.00 107.83 11.42 106.19 12.75C105.49 13.34 104.62 13.64 103.75 13.62L102.66 13.62L102.66 5.98L103.75 5.98C104.86 5.98 105.97 6.45 106.72 7.38ZM119.38 15.54C119.38 15.69 119.25 15.82 119.11 15.82L111.45 15.82C111.30 15.82 111.17 15.69 111.17 15.54L111.17 4.06C111.17 3.91 111.30 3.78 111.45 3.78L118.83 3.78C118.99 3.78 119.11 3.91 119.11 4.06L119.11 5.70C119.11 5.85 118.99 5.96 118.83 5.96L113.36 5.96L113.36 8.71L118.55 8.71C118.71 8.71 118.83 8.82 118.83 8.97L118.83 10.61C118.83 10.77 118.71 10.89 118.55 10.89L113.36 10.89L113.36 13.62L119.11 13.62C119.25 13.62 119.38 13.75 119.38 13.90ZM128.63 15.37L126.41 11.42L126.10 10.89L126.03 10.77C128.06 10.32 129.11 8.82 129.11 7.35C129.11 6.38 128.66 5.46 127.89 4.82C127.11 4.14 126.00 3.79 124.73 3.79L120.64 3.79C120.48 3.79 120.36 3.92 120.36 4.06L120.36 5.17L120.50 5.42L120.50 5.43L122.36 8.71L120.36 8.71L120.36 15.54C120.36 15.69 120.48 15.82 120.64 15.82L122.28 15.82C122.42 15.82 122.54 15.69 122.54 15.54L122.54 10.89L123.59 10.89L123.89 11.42L126.28 15.65L126.31 15.69C126.35 15.76 126.43 15.82 126.53 15.82L128.41 15.82C128.56 15.82 128.67 15.69 128.67 15.53C128.67 15.48 128.67 15.44 128.65 15.40ZM124.57 8.19L123.33 5.98L124.73 5.98C126.24 5.98 126.91 6.69 126.91 7.35C126.91 7.91 126.41 8.53 125.27 8.68C125.15 8.69 125.01 8.71 124.87 8.71ZM138.57 12.28C138.57 12.38 138.56 13.22 138.03 14.07C137.54 14.88 136.53 15.83 134.47 15.83C132.85 15.83 131.57 15.15 130.89 13.93C130.56 13.34 130.44 12.77 130.40 12.40C130.40 12.38 130.38 12.35 130.38 12.32C130.38 12.18 130.49 12.05 130.63 12.04L132.36 12.04C132.47 12.05 132.55 12.12 132.58 12.24L132.58 12.25C132.58 12.26 132.59 12.28 132.59 12.29C132.62 12.46 132.69 12.70 132.83 12.91C133.13 13.40 133.67 13.65 134.47 13.65C135.32 13.65 135.87 13.41 136.16 12.94C136.36 12.61 136.39 12.26 136.39 12.26C136.39 11.87 136.29 11.41 135.56 11.12C135.03 10.89 134.47 10.88 134.47 10.88C134.37 10.88 133.48 10.86 132.55 10.50C131.14 9.93 130.37 8.81 130.37 7.34C130.37 7.20 130.40 5.89 131.42 4.87C132.15 4.13 133.18 3.75 134.47 3.75C135.30 3.75 136.49 3.93 137.40 4.86C138.28 5.75 138.50 6.89 138.56 7.45L138.56 7.48C138.56 7.64 138.45 7.77 138.29 7.77L136.60 7.77C136.49 7.76 136.39 7.66 136.36 7.55L136.36 7.50C136.32 7.31 136.25 7.03 136.11 6.75C135.91 6.40 135.53 5.94 134.47 5.94C133.78 5.94 133.28 6.09 132.96 6.41C132.58 6.79 132.55 7.34 132.55 7.34C132.55 7.73 132.65 8.18 133.38 8.47C133.91 8.68 134.47 8.69 134.47 8.69C134.57 8.69 135.46 8.71 136.39 9.09C137.80 9.67 138.57 10.81 138.57 12.28Z"></path></g><defs data-v-fde0c5aa=""><!----></defs><g data-v-fde0c5aa="" id="d6264ccf-7594-4dc6-9612-611c7338fefc" stroke="none" fill="#81E291" transform="matrix(0.5123975866534509,0,0,0.5123975866534509,124.38012164464828,103.9034413529627)"><path d="M50 5.204C25.3 5.204 5.205 25.3 5.205 50 5.205 74.701 25.3 94.796 50 94.796c24.7 0 44.795-20.095 44.795-44.796C94.795 25.3 74.701 5.204 50 5.204zm0 87.653C26.331 92.857 7.143 73.669 7.143 50S26.331 7.143 50 7.143 92.857 26.331 92.857 50 73.669 92.857 50 92.857z"></path><path d="M50 8.112C26.903 8.112 8.112 26.903 8.112 50S26.903 91.888 50 91.888 91.888 73.097 91.888 50 73.097 8.112 50 8.112zm-4.186 78.022c-18.385-2.16-32.248-17.768-32.248-36.307 0-2.269.21-4.542.623-6.754l2.066.386a34.725 34.725 0 0 0-.587 6.368c0 17.473 13.066 32.184 30.392 34.22l-.246 2.087zm10.073-.101l-1.033.168-1.162-6.937a29.942 29.942 0 0 1-3.939.261 29.409 29.409 0 0 1-20.133-7.934l1.434-1.536a27.313 27.313 0 0 0 18.699 7.368 27.7 27.7 0 0 0 4.628-.389l1.039-.176 1.158 6.917a34.131 34.131 0 0 0 12.31-5.017l1.154 1.756a36.211 36.211 0 0 1-14.155 5.519zm22.84-13.485l-1.65-1.301a34.611 34.611 0 0 0 1.905-2.666l-4.36-2.67a29.678 29.678 0 0 1-10.194 9.713l-.871.5-3.37-5.297a22.821 22.821 0 0 1-12.406 2.224l.213-2.091a20.758 20.758 0 0 0 19.828-9.819l-6.156-3.706.461-.878a13.712 13.712 0 0 0-.994-14.327l-4.276 3.536a8.214 8.214 0 0 1 1.447 4.664c0 4.557-3.707 8.264-8.264 8.264a8.224 8.224 0 0 1-5.732-2.311l1.458-1.514a6.134 6.134 0 0 0 4.274 1.723 6.17 6.17 0 0 0 6.163-6.163 6.17 6.17 0 0 0-6.163-6.163 6.126 6.126 0 0 0-5.267 2.961l-.224.367-.698.174-7.498 1.342c-.028.359-.043.721-.043 1.087 0 7.549 6.141 13.69 13.69 13.69a13.61 13.61 0 0 0 5.328-1.075l.819 1.935A15.688 15.688 0 0 1 50 65.988a15.71 15.71 0 0 1-9.794-3.413l-4.979 5.105-.752-.706a22.785 22.785 0 0 1-7.065-14.098l-6.983.631-.086-1.056a30.02 30.02 0 0 1-.099-2.439c0-5.091 1.305-9.967 3.658-14.241l-6.285-3.515.546-.926A36.876 36.876 0 0 1 31.3 18.246a36.627 36.627 0 0 1 18.454-4.978c2.262 0 4.527.208 6.733.617l-.384 2.066a34.887 34.887 0 0 0-6.35-.582 34.52 34.52 0 0 0-17.395 4.692A34.775 34.775 0 0 0 20.53 31.479l4.447 2.487a29.498 29.498 0 0 1 13.09-11.063l.833 1.93a27.405 27.405 0 0 0-16.532 26.389l4.905-.443c-.003-.153-.006-.306-.006-.459 0-2.432.38-4.827 1.131-7.118l1.997.654a20.73 20.73 0 0 0-1.026 6.464c0 5.443 2.055 10.517 5.81 14.4l3.469-3.556a15.736 15.736 0 0 1-4.439-10.965c0-4.667 2.036-8.867 5.265-11.761l-4.769-5.023.868-.717a22.883 22.883 0 0 1 14.544-5.226c10.657 0 19.855 7.355 22.25 17.631l4.231-.67c-1.069-5.194-3.626-9.967-7.462-13.802-5.177-5.177-12.061-8.029-19.382-8.029V20.5c4.398 0 8.649.957 12.516 2.77l3.591-6.466.904.463c8.941 4.579 15.672 12.719 18.468 22.335l-2.018.587c-2.541-8.738-8.53-16.184-16.511-20.575l-2.564 4.617a29.615 29.615 0 0 1 6.482 4.914c5.574 5.574 8.644 12.985 8.644 20.868h-2.102a27.75 27.75 0 0 0-.222-3.507l-6.244.989-.187-1.005c-1.829-9.802-10.406-16.917-20.394-16.917a20.789 20.789 0 0 0-12.316 4.05l3.335 3.513A15.698 15.698 0 0 1 50 34.407c.448 0 .9.019 1.344.056l-.176 2.094a13.747 13.747 0 0 0-1.167-.049c-6.416 0-11.815 4.437-13.29 10.404l6.521-1.167a8.204 8.204 0 0 1 6.809-3.579 8.23 8.23 0 0 1 5.417 2.031l5.976-4.942.67.799a15.807 15.807 0 0 1 2.318 16.585l6.234 3.753-.484.885a22.864 22.864 0 0 1-8.138 8.534l2.21 3.473a27.578 27.578 0 0 0 9.129-9.353l.543-.919 6.152 3.768a34.3 34.3 0 0 0 4.273-13.784l2.093.187a36.435 36.435 0 0 1-7.707 19.365zM49.413 49.99a1.92 1.92 0 1 1 3.841.001 1.92 1.92 0 0 1-3.841-.001z"></path></g><!----></svg>